<svg xmlns="http://www.w3.org/2000/svg" width="295.368" height="100.661" viewBox="0 0 295.368 100.661">
  <g id="Group_2274" data-name="Group 2274" transform="translate(-181.606 -95)">
    <g id="Group_27" data-name="Group 27" transform="translate(115.018 52.938)">
      <g id="Group_8" data-name="Group 8" transform="translate(66.588 42.062)">
        <g id="Group_7" data-name="Group 7">
          <path id="Path_15" data-name="Path 15" d="M41.249,142.723l3.286-13.082L31.657,134.61,47.676,70.858l10.381,4.969,5.168-20.563,9.946,4.762,4.515-17.964L150.913,77.13l-23.268,8.98,26.9,12.883Zm7.767-14.813L46.9,136.334l97.746-37.728-22.032-10.55-21.607,8.338,13.236,6.34Zm1.3-51.437L37.31,128.221l8.4-3.241L57.08,79.715Zm10.377,4.973-10.505,41.8,54.152-20.9L95.969,98.34,60.055,112.2l6.971-27.722ZM70.639,86.2,65.711,105.81l25.393-9.8Zm.973-3.884L96.138,94.066l21.611-8.342L75.807,65.641Zm5.172-20.567,46,22.028,18.235-7.038L80.322,47.677ZM61.67,77.559,68,80.59l4.192-16.68-6.332-3.031Z" transform="translate(-31.657 -42.062)" fill="#20a2dc"/>
        </g>
      </g>
    </g>
    <g id="Group_29" data-name="Group 29" transform="translate(330.023 126)">
      <g id="Group_5" data-name="Group 5">
        <g id="Group_2" data-name="Group 2">
          <g id="Group_1" data-name="Group 1">
            <path id="Path_1" data-name="Path 1" d="M39.595,99.391a8.38,8.38,0,0,1-7.976,5.814H18.982V77.127H29.439A8.381,8.381,0,0,1,36.51,90.015,8.382,8.382,0,0,1,39.595,99.391ZM24.446,88.435h4.993a2.922,2.922,0,1,0,0-5.845H24.446ZM34.5,96.82A2.918,2.918,0,0,0,31.619,93.9H24.446v5.842h7.173A2.918,2.918,0,0,0,34.5,96.82Z" transform="translate(-18.982 -77.094)" fill="#333"/>
            <path id="Path_2" data-name="Path 2" d="M57.564,91.151a14.022,14.022,0,1,1-14.022-14.02A14.022,14.022,0,0,1,57.564,91.151Zm-5.459,0a8.562,8.562,0,1,0-8.564,8.564A8.568,8.568,0,0,0,52.106,91.151Z" transform="translate(-2.59 -77.088)" fill="#333"/>
            <path id="Path_3" data-name="Path 3" d="M66.609,108.726H59.77l-8.7-11.548h-2.31V105.2H43.3V77.127h9.928a10.024,10.024,0,0,1,4.04,19.2ZM57.787,87.152a4.561,4.561,0,0,0-4.562-4.562H48.761v9.123h4.465A4.559,4.559,0,0,0,57.787,87.152Z" transform="translate(18.841 -77.094)" fill="#333"/>
            <path id="Path_4" data-name="Path 4" d="M78.945,105.225H73.19l-1.165-3.5H61.35l-1.173,3.5H54.412l9.432-28.111h5.735ZM70.2,96.263l-3.5-10.5-3.522,10.5Z" transform="translate(36.13 -77.114)" fill="#333"/>
            <path id="Path_5" data-name="Path 5" d="M90.287,100.045l2.765,3.253-4.166,3.537L86.053,103.5a14.054,14.054,0,1,1,4.235-3.453Zm-2.239-8.932A8.537,8.537,0,1,0,85.7,97,8.452,8.452,0,0,0,88.049,91.114Z" transform="translate(53.438 -77.074)" fill="#333"/>
          </g>
        </g>
      </g>
    </g>
  </g>
</svg>
