<svg width="17" height="16" viewBox="0 0 17 16" fill="none" xmlns="http://www.w3.org/2000/svg">
<path d="M16.3 8.74742C16.3 8.5 16.3 8.1701 16.3 7.92268V1.65463C16.3 1.40721 16.1351 1.24226 15.8876 1.24226H0.877322C0.629899 1.24226 0.464951 1.40721 0.464951 1.65463V14.6031C0.464951 14.8505 0.629899 15.0155 0.877322 15.0155H15.8876C16.1351 15.0155 16.3 14.8505 16.3 14.6031V8.74742Z" stroke="#69696B" stroke-miterlimit="10"/>
<path d="M0.300003 4.45877H16.3" stroke="#69696B" stroke-miterlimit="10"/>
<path d="M4.58865 0.5V2.06701" stroke="#69696B" stroke-miterlimit="10" stroke-linecap="round"/>
<path d="M8.54742 0.5V2.06701" stroke="#69696B" stroke-miterlimit="10" stroke-linecap="round"/>
<path d="M12.5887 0.5V2.06701" stroke="#69696B" stroke-miterlimit="10" stroke-linecap="round"/>
<path d="M4.58866 3.38659C4.9986 3.38659 5.33093 3.05427 5.33093 2.64432C5.33093 2.23438 4.9986 1.90205 4.58866 1.90205C4.17871 1.90205 3.84639 2.23438 3.84639 2.64432C3.84639 3.05427 4.17871 3.38659 4.58866 3.38659Z" fill="#69696B"/>
<path d="M8.54743 3.38659C8.95737 3.38659 9.2897 3.05427 9.2897 2.64432C9.2897 2.23438 8.95737 1.90205 8.54743 1.90205C8.13749 1.90205 7.80516 2.23438 7.80516 2.64432C7.80516 3.05427 8.13749 3.38659 8.54743 3.38659Z" fill="#69696B"/>
<path d="M12.5887 3.38659C12.9986 3.38659 13.3309 3.05427 13.3309 2.64432C13.3309 2.23438 12.9986 1.90205 12.5887 1.90205C12.1787 1.90205 11.8464 2.23438 11.8464 2.64432C11.8464 3.05427 12.1787 3.38659 12.5887 3.38659Z" fill="#69696B"/>
<path d="M10.8567 7.09793L13.8258 10.067" stroke="#69696B" stroke-miterlimit="10" stroke-linecap="round"/>
<path d="M13.8258 7.09793L10.8567 10.067" stroke="#69696B" stroke-miterlimit="10" stroke-linecap="round"/>
<path d="M2.77423 9.73712L5.7433 12.7062" stroke="#69696B" stroke-miterlimit="10" stroke-linecap="round"/>
<path d="M5.7433 9.73712L2.77423 12.7887" stroke="#69696B" stroke-miterlimit="10" stroke-linecap="round"/>
</svg>
