<?xml version="1.0"?>
<svg xmlns="http://www.w3.org/2000/svg" id="_x31__x2C_5_px" enable-background="new 0 0 24 24" height="512px" viewBox="0 0 24 24" width="512px"><g><path d="m17.5 24c-3.584 0-6.5-2.916-6.5-6.5s2.916-6.5 6.5-6.5 6.5 2.916 6.5 6.5-2.916 6.5-6.5 6.5zm0-11.5c-2.757 0-5 2.243-5 5s2.243 5 5 5 5-2.243 5-5-2.243-5-5-5z" data-original="#000000" class="active-path" data-old_color="#000000" fill="#FFFFFF"/><path d="m17.5 21c-.414 0-.75-.336-.75-.75v-5.5c0-.414.336-.75.75-.75s.75.336.75.75v5.5c0 .414-.336.75-.75.75z" data-original="#000000" class="active-path" data-old_color="#000000" fill="#FFFFFF"/><path d="m20.25 18.25h-5.5c-.414 0-.75-.336-.75-.75s.336-.75.75-.75h5.5c.414 0 .75.336.75.75s-.336.75-.75.75z" data-original="#000000" class="active-path" data-old_color="#000000" fill="#FFFFFF"/><path d="m19.871 9.011c-.192 0-.384-.073-.53-.22l-4.135-4.134c-.293-.293-.293-.768 0-1.061s.768-.293 1.061 0l4.135 4.134c.293.293.293.768 0 1.061-.147.147-.339.22-.531.22z" data-original="#000000" class="active-path" data-old_color="#000000" fill="#FFFFFF"/><path d="m.75 24c-.195 0-.387-.076-.53-.22-.206-.206-.274-.513-.175-.786l2.38-6.56c.038-.104.097-.197.175-.274l15.08-15.07c1.392-1.404 3.836-1.406 5.233.002.7.701 1.087 1.628 1.087 2.608 0 .999-.389 1.931-1.094 2.625l-3.135 3.135c-.293.293-.768.293-1.061 0s-.293-.768 0-1.061l3.14-3.14c.421-.414.65-.967.65-1.56 0-.58-.231-1.13-.65-1.55-.833-.84-2.279-.838-3.107-.002l-14.965 14.956-1.776 4.896 4.896-1.776 1.502-1.503c.293-.293.768-.293 1.061 0s.293.768 0 1.061l-1.621 1.619c-.078.078-.171.138-.274.175l-6.56 2.38c-.084.03-.17.045-.256.045z" data-original="#000000" class="active-path" data-old_color="#000000" fill="#FFFFFF"/><path d="m7.308 21.62c-.192 0-.384-.073-.53-.22l-4.178-4.177c-.293-.293-.293-.768 0-1.061s.768-.293 1.061 0l4.178 4.178c.293.293.293.768 0 1.061-.147.146-.339.219-.531.219z" data-original="#000000" class="active-path" data-old_color="#000000" fill="#FFFFFF"/></g> </svg>
