<svg width="16" height="16" viewBox="0 0 16 16" fill="none" xmlns="http://www.w3.org/2000/svg">
<path d="M8.69367 13.3819H1.44141C1.25222 13.3819 1.1261 13.2412 1.1261 13.0302V1.98494C1.1261 1.77388 1.25222 1.63318 1.44141 1.63318H12.9189C13.1081 1.63318 13.2342 1.77388 13.2342 1.98494V7.68343" stroke="#69696B" stroke-miterlimit="10"/>
<path d="M1 4.37683H13.2342" stroke="#69696B" stroke-miterlimit="10"/>
<path d="M4.27917 1V2.33668" stroke="#69696B" stroke-miterlimit="10" stroke-linecap="round"/>
<path d="M7.30627 1V2.33668" stroke="#69696B" stroke-miterlimit="10" stroke-linecap="round"/>
<path d="M10.3965 1V2.33668" stroke="#69696B" stroke-miterlimit="10" stroke-linecap="round"/>
<path d="M4.27924 3.46232C4.5927 3.46232 4.84681 3.17884 4.84681 2.82915C4.84681 2.47946 4.5927 2.19598 4.27924 2.19598C3.96578 2.19598 3.71167 2.47946 3.71167 2.82915C3.71167 3.17884 3.96578 3.46232 4.27924 3.46232Z" fill="#69696B"/>
<path d="M7.30634 3.46232C7.6198 3.46232 7.8739 3.17884 7.8739 2.82915C7.8739 2.47946 7.6198 2.19598 7.30634 2.19598C6.99288 2.19598 6.73877 2.47946 6.73877 2.82915C6.73877 3.17884 6.99288 3.46232 7.30634 3.46232Z" fill="#69696B"/>
<path d="M10.3964 3.46232C10.7099 3.46232 10.964 3.17884 10.964 2.82915C10.964 2.47946 10.7099 2.19598 10.3964 2.19598C10.083 2.19598 9.82886 2.47946 9.82886 2.82915C9.82886 3.17884 10.083 3.46232 10.3964 3.46232Z" fill="#69696B"/>
<path d="M11.5315 15C13.447 15 14.9999 13.2676 14.9999 11.1306C14.9999 8.99366 13.447 7.26129 11.5315 7.26129C9.61587 7.26129 8.06299 8.99366 8.06299 11.1306C8.06299 13.2676 9.61587 15 11.5315 15Z" stroke="#69696B" stroke-miterlimit="10"/>
<path d="M11.4685 11.5527C11.6774 11.5527 11.8468 11.3638 11.8468 11.1306C11.8468 10.8975 11.6774 10.7085 11.4685 10.7085C11.2595 10.7085 11.0901 10.8975 11.0901 11.1306C11.0901 11.3638 11.2595 11.5527 11.4685 11.5527Z" fill="#69696B"/>
<path d="M11.4685 8.45728V10.9899" stroke="#69696B" stroke-miterlimit="10" stroke-linecap="round"/>
<path d="M11.6577 11.1306H13.1082" stroke="#69696B" stroke-miterlimit="10" stroke-linecap="round"/>
</svg>
