<svg width="18" height="18" viewBox="0 0 18 18" fill="none" xmlns="http://www.w3.org/2000/svg">
<path d="M17 17L12.7701 12.7701M14.7318 7.8659C14.7318 8.76754 14.5542 9.66036 14.2092 10.4934C13.8641 11.3264 13.3584 12.0833 12.7208 12.7208C12.0833 13.3584 11.3264 13.8641 10.4934 14.2092C9.66036 14.5542 8.76754 14.7318 7.8659 14.7318C6.96426 14.7318 6.07144 14.5542 5.23843 14.2092C4.40542 13.8641 3.64853 13.3584 3.01098 12.7208C2.37342 12.0833 1.86768 11.3264 1.52264 10.4934C1.17759 9.66036 1 8.76754 1 7.8659C1 6.04495 1.72337 4.29858 3.01098 3.01098C4.29858 1.72337 6.04495 1 7.8659 1C9.68685 1 11.4332 1.72337 12.7208 3.01098C14.0084 4.29858 14.7318 6.04495 14.7318 7.8659Z" stroke="#69696B" stroke-width="1.2" stroke-linecap="round" stroke-linejoin="round"/>
<path d="M8.16942 11.3448H5.10423C5.06817 11.3448 5.0321 11.3086 5.0321 11.2723V8.48059" stroke="#69696B" stroke-miterlimit="10"/>
<path d="M11.3427 8.48059V11.2723C11.3427 11.3086 11.3066 11.3448 11.2706 11.3448H8.78235" stroke="#69696B" stroke-miterlimit="10"/>
<path d="M8.5658 5H11.2343C11.2704 5 11.3064 5.03626 11.3064 5.07251V8.04551" stroke="#69696B" stroke-miterlimit="10"/>
<path d="M5.0321 7.90048V5.07251C5.0321 5.03626 5.06817 5 5.10423 5H7.91699" stroke="#69696B" stroke-miterlimit="10"/>
</svg>
