<svg xmlns="http://www.w3.org/2000/svg" width="52.078" height="52.078" viewBox="0 0 52.078 52.078"><defs><style>.a{fill:#333;}</style></defs><path class="a" d="M26.039,0A26.039,26.039,0,1,0,52.078,26.039,26.042,26.042,0,0,0,26.039,0Zm.552,41.2h-.006a15.579,15.579,0,0,1-7.448-1.9L10.875,41.47,13.086,33.4a15.586,15.586,0,1,1,13.5,7.8Zm0,0"/><path class="a" d="M147.029,124.469a12.955,12.955,0,0,0-10.978,19.84l.308.49-1.309,4.779,4.9-1.286.473.28a12.932,12.932,0,0,0,6.593,1.805h.005a12.954,12.954,0,0,0,.006-25.908Zm7.619,18.516a4.012,4.012,0,0,1-2.628,1.851,5.344,5.344,0,0,1-2.453-.154,22.489,22.489,0,0,1-2.22-.82c-3.906-1.686-6.457-5.618-6.652-5.878a7.572,7.572,0,0,1-1.59-4.027,4.365,4.365,0,0,1,1.363-3.247,1.431,1.431,0,0,1,1.039-.487c.259,0,.519,0,.746.014s.56-.091.876.668c.325.78,1.1,2.7,1.2,2.89a.718.718,0,0,1,.033.682,11.1,11.1,0,0,1-.973,1.331c-.173.214-.4.4-.171.795a11.738,11.738,0,0,0,2.166,2.7,10.645,10.645,0,0,0,3.132,1.932c.389.195.616.162.844-.1s.973-1.137,1.233-1.527.519-.325.876-.195,2.272,1.072,2.661,1.266.649.292.746.455A3.247,3.247,0,0,1,154.649,142.984Zm0,0" transform="translate(-120.433 -111.808)"/></svg>